<svg xmlns="http://www.w3.org/2000/svg" viewBox="0 0 512 512" role="img" aria-labelledby="title">
  <title id="title">CraftProperties</title>
  <defs>
    <linearGradient id="background" x1="58" y1="38" x2="454" y2="474" gradientUnits="userSpaceOnUse">
      <stop stop-color="#22c55e"/>
      <stop offset="1" stop-color="#0891b2"/>
    </linearGradient>
    <linearGradient id="sheet" x1="142" y1="100" x2="362" y2="414" gradientUnits="userSpaceOnUse">
      <stop stop-color="#ffffff"/>
      <stop offset="1" stop-color="#dcfce7"/>
    </linearGradient>
    <filter id="shadow" x="-20%" y="-20%" width="140%" height="150%">
      <feDropShadow dx="0" dy="18" stdDeviation="18" flood-color="#052e2b" flood-opacity=".28"/>
    </filter>
  </defs>
  <rect width="512" height="512" rx="116" fill="url(#background)"/>
  <path d="M0 354 182 172l92 92L512 26v370c0 64-52 116-116 116H116C52 512 0 460 0 396Z" fill="#0f766e" opacity=".24"/>
  <g filter="url(#shadow)">
    <path d="M145 88h166l66 66v267c0 17-14 31-31 31H145c-17 0-31-14-31-31V119c0-17 14-31 31-31Z" fill="url(#sheet)"/>
    <path d="M311 88v54c0 15 12 27 27 27h39Z" fill="#bbf7d0"/>
    <rect x="161" y="194" width="169" height="22" rx="11" fill="#0f766e" opacity=".92"/>
    <rect x="161" y="250" width="125" height="18" rx="9" fill="#14b8a6" opacity=".65"/>
    <rect x="161" y="301" width="169" height="18" rx="9" fill="#14b8a6" opacity=".65"/>
    <rect x="161" y="352" width="101" height="18" rx="9" fill="#14b8a6" opacity=".65"/>
    <circle cx="320" cy="361" r="61" fill="#0f172a"/>
    <path d="M320 322v78M281 361h78" stroke="#4ade80" stroke-width="18" stroke-linecap="round"/>
  </g>
</svg>
