<svg xmlns="http://www.w3.org/2000/svg" viewBox="0 0 256 256" role="img" aria-labelledby="title">
  <title id="title">MineFlow</title>
  <defs>
    <linearGradient id="background" x1="24" y1="20" x2="228" y2="238" gradientUnits="userSpaceOnUse">
      <stop stop-color="#6366F1"/>
      <stop offset="1" stop-color="#7C3AED"/>
    </linearGradient>
    <linearGradient id="cube" x1="76" y1="67" x2="178" y2="189" gradientUnits="userSpaceOnUse">
      <stop stop-color="#FFFFFF"/>
      <stop offset="1" stop-color="#DDD6FE"/>
    </linearGradient>
    <filter id="shadow" x="-20%" y="-20%" width="140%" height="140%">
      <feDropShadow dx="0" dy="10" stdDeviation="10" flood-color="#312E81" flood-opacity=".35"/>
    </filter>
  </defs>
  <rect x="8" y="8" width="240" height="240" rx="58" fill="url(#background)"/>
  <path d="M36 178c26-14 43-7 58 4 20 15 39 16 57-3 18-19 38-22 69-5v42H36v-38Z" fill="#312E81" opacity=".35"/>
  <g filter="url(#shadow)">
    <path d="m128 52 64 37v74l-64 37-64-37V89l64-37Z" fill="url(#cube)"/>
    <path d="m128 52 64 37-64 37-64-37 64-37Z" fill="#F5F3FF"/>
    <path d="m64 89 64 37v74l-64-37V89Z" fill="#C4B5FD"/>
    <path d="m192 89-64 37v74l64-37V89Z" fill="#EDE9FE"/>
    <path d="m128 52 20 12-64 37-20-12 64-37Z" fill="#FFFFFF" opacity=".76"/>
    <path d="m128 126 64-37v24l-64 37-64-37V89l64 37Z" fill="#FFFFFF" opacity=".18"/>
  </g>
  <path d="M128 19v21M128 216v21M19 128h21M216 128h21" stroke="#FFFFFF" stroke-width="8" stroke-linecap="round" opacity=".72"/>
</svg>
