<svg xmlns="http://www.w3.org/2000/svg" viewBox="0 0 256 256" role="img" aria-labelledby="title">
  <title id="title">Minecraft Properties</title>
  <defs>
    <linearGradient id="bg" x1="24" y1="18" x2="232" y2="238" gradientUnits="userSpaceOnUse">
      <stop stop-color="#182235"/>
      <stop offset="1" stop-color="#0d2819"/>
    </linearGradient>
    <linearGradient id="grass" x1="44" y1="72" x2="214" y2="190" gradientUnits="userSpaceOnUse">
      <stop stop-color="#4ade80"/>
      <stop offset="1" stop-color="#15803d"/>
    </linearGradient>
    <filter id="shadow" x="-20%" y="-20%" width="140%" height="140%">
      <feDropShadow dx="0" dy="8" stdDeviation="9" flood-color="#000" flood-opacity=".3"/>
    </filter>
  </defs>
  <rect width="256" height="256" rx="52" fill="url(#bg)"/>
  <circle cx="202" cy="48" r="54" fill="#22c55e" opacity=".08"/>
  <path d="M51 82 128 45l77 37v91l-77 38-77-38V82Z" fill="url(#grass)" filter="url(#shadow)"/>
  <path d="m51 82 77 38 77-38-77-37-77 37Z" fill="#65d979"/>
  <path d="m51 82 77 38v91l-77-38V82Z" fill="#27994d"/>
  <path d="m205 82-77 38v91l77-38V82Z" fill="#16763b"/>
  <path d="M51 82 128 45l77 37-77 38-77-38Z" fill="none" stroke="#bbf7d0" stroke-opacity=".35" stroke-width="4"/>
  <g fill="none" stroke="#fff" stroke-linecap="round" stroke-width="9">
    <path d="M83 111h89"/>
    <path d="M83 144h89"/>
    <path d="M83 177h89"/>
  </g>
  <g fill="#fff" stroke="#143c24" stroke-width="6">
    <circle cx="112" cy="111" r="13"/>
    <circle cx="149" cy="144" r="13"/>
    <circle cx="101" cy="177" r="13"/>
  </g>
</svg>
