<svg width="512" height="512" viewBox="0 0 512 512" fill="none" xmlns="http://www.w3.org/2000/svg">
  <defs>
    <linearGradient id="bg" x1="0" y1="0" x2="512" y2="512" gradientUnits="userSpaceOnUse">
      <stop stop-color="#1f9d55"/>
      <stop offset="1" stop-color="#0b6e3b"/>
    </linearGradient>
    <linearGradient id="doc" x1="128" y1="96" x2="384" y2="416" gradientUnits="userSpaceOnUse">
      <stop stop-color="#f7fafc"/>
      <stop offset="1" stop-color="#cbd5e0"/>
    </linearGradient>
  </defs>
  <rect width="512" height="512" rx="96" fill="url(#bg)"/>
  <rect x="132" y="88" width="248" height="308" rx="22" fill="url(#doc)"/>
  <rect x="132" y="88" width="248" height="60" rx="22" fill="#2f855a"/>
  <rect x="160" y="112" width="120" height="14" rx="7" fill="#e6fffa"/>
  <g fill="#2f855a">
    <rect x="168" y="184" width="90" height="16" rx="8"/>
    <rect x="168" y="230" width="130" height="16" rx="8"/>
    <rect x="168" y="276" width="70" height="16" rx="8"/>
    <rect x="168" y="322" width="110" height="16" rx="8"/>
  </g>
  <g fill="#1a202c" opacity="0.14">
    <rect x="286" y="184" width="58" height="16" rx="8"/>
    <rect x="316" y="230" width="28" height="16" rx="8"/>
    <rect x="256" y="276" width="88" height="16" rx="8"/>
    <rect x="296" y="322" width="48" height="16" rx="8"/>
  </g>
  <g transform="translate(360 348)">
    <circle cx="0" cy="0" r="74" fill="#22543d"/>
    <path fill="#f0fff4" d="M0-52a52 52 0 100 104A52 52 0 000-52zm0 26a26 26 0 110 52 26 26 0 010-52z"/>
    <g fill="#f0fff4">
      <rect x="-9" y="-70" width="18" height="20" rx="4"/>
      <rect x="-9" y="50" width="18" height="20" rx="4"/>
      <rect x="50" y="-9" width="20" height="18" rx="4"/>
      <rect x="-70" y="-9" width="20" height="18" rx="4"/>
      <rect x="-58" y="-58" width="18" height="20" rx="4" transform="rotate(45 -49 -48)"/>
      <rect x="40" y="-58" width="18" height="20" rx="4" transform="rotate(45 49 -48)"/>
      <rect x="40" y="38" width="18" height="20" rx="4" transform="rotate(45 49 48)"/>
      <rect x="-58" y="38" width="18" height="20" rx="4" transform="rotate(45 -49 48)"/>
    </g>
  </g>
</svg>
